<svg width="200" height="200" viewBox="0 0 200 200" fill="none" xmlns="http://www.w3.org/2000/svg">
<rect x="1.5" y="1.5" width="197" height="197" rx="98.5" fill="#0356A0"/>
<rect x="1.5" y="1.5" width="197" height="197" rx="98.5" stroke="#1C1C1C" stroke-width="3"/>
<g filter="url(#filter0_d_51_47)">
<path d="M103.824 32.6103L108.7 35.0257L113.577 32.6103C118.255 30.3254 118.848 30.1949 125.108 30.1949C131.302 30.1949 132.027 30.3254 135.717 32.2839C137.892 33.3936 140.791 35.4173 142.241 36.7883C145.535 40.0523 148.566 46.3846 149.028 51.0195L149.423 54.6752H151.795C155.156 54.6752 158.319 56.8295 159.768 60.0936C161.218 63.227 161.416 65.3813 160.361 68.3189C159.703 70.2121 159.768 70.4732 161.35 71.7135C163.656 73.5414 165.04 76.2832 165.04 79.1556C165.04 82.0932 164.249 83.66 161.284 86.7282L158.978 89.0783L161.284 90.5145C164.447 92.4076 166.094 96.6509 165.304 100.829C164.908 102.918 163.129 105.072 154.233 114.016C136.376 131.968 124.449 142.674 114.301 149.92C109.03 153.706 102.77 158.602 100.332 160.887C97.8938 163.172 95.3898 165 94.665 165C92.9517 165 91.3044 162.715 91.6997 161.018C92.2928 158.929 97.6302 154.294 108.964 146.134C120.693 137.647 132.225 127.463 148.435 111.339C159.768 99.9802 160.625 98.544 157.989 95.6717C155.551 92.9951 154.167 93.9091 141.977 105.921C132.62 115.125 129.984 117.345 128.6 117.345C126.162 117.345 125.24 115.06 126.69 112.775C127.217 111.861 134.729 104.223 143.427 95.7369C152.059 87.3157 159.109 79.8737 159.109 79.2861C159.109 77.85 156.803 75.5651 155.354 75.5651C154.76 75.5651 146.919 82.8113 137.892 91.6895C123.263 106.117 121.286 107.879 119.375 107.879C117.53 107.879 117.267 107.618 117.069 105.986C116.871 104.289 118.716 102.2 135.981 85.0961C148.435 72.6928 155.156 65.5771 155.156 64.7285C155.156 62.7701 152.718 60.5505 150.609 60.5505C148.896 60.5505 148.501 61.0075 146.655 64.9243C144.81 68.7759 142.636 71.2566 127.283 86.467C117.662 96.0633 109.491 103.636 108.832 103.636C107.119 103.636 101.782 98.4787 101.782 96.8467C101.782 94.0396 105.274 92.734 107.053 94.823C107.514 95.3453 108.239 95.8022 108.7 95.8022C110.282 95.8022 139.802 65.316 141.45 61.9867C143.558 57.6782 143.558 50.3667 141.384 46.1887C135.717 35.3521 122.538 32.4144 113.049 39.987C111.468 41.2274 109.557 42.2719 108.832 42.2719C108.173 42.2719 106.131 41.2273 104.351 39.9217C94.2037 32.545 82.0133 35.1562 76.2146 45.8623C72.854 52.1945 74.1719 61.9214 79.114 66.4911L80.6295 67.9273L81.3544 66.1647C81.6838 65.1855 82.0133 64.0757 82.0133 63.684C82.0133 61.8561 84.7809 57.4823 86.6259 56.3725C89.1299 54.9363 93.7425 54.8711 96.4441 56.3073C97.6961 56.8948 99.0799 58.4615 99.9365 60.2241L101.32 63.0965L98.8822 83.5294C96.6418 101.482 96.1806 104.093 94.9945 105.137C93.8743 106.117 93.4789 106.182 92.2928 105.399C91.4362 104.811 90.8431 103.636 90.7113 102.265C90.5796 101.025 91.568 91.7548 92.8859 81.6363C94.1378 71.583 94.9945 62.8353 94.7968 62.2478C94.1378 60.4852 92.3587 59.8977 90.5796 60.7464C89.3935 61.3339 88.6686 62.6395 87.7461 65.773C84.9786 75.3693 78.5209 94.9536 76.9395 98.3482C71.1408 111.143 68.505 123.612 70.4818 129.552C70.8772 130.793 69.0981 132.947 57.962 144.437C50.3841 152.27 44.4536 157.819 43.7947 157.819C42.2791 157.819 40.5 156.122 40.5 154.751C40.5 153.772 43.9265 149.92 56.3805 137.256L63.4312 130.075L63.7606 123.873C64.0901 118.716 64.8149 115.06 67.1212 106.574C67.3189 105.79 67.4507 105.529 71.1408 96.455C72.7222 92.6687 75.0285 86.3365 76.2805 82.3543L78.6527 75.1082L75.6216 71.9094C73.9742 70.1468 71.6679 66.8175 70.5477 64.4674C68.7027 60.6158 68.505 59.6366 68.505 54.0224C68.505 48.6041 68.7686 47.2985 70.35 43.8386C72.7881 38.6161 77.9279 33.5895 83.0676 31.4352C86.4282 30.0643 87.7461 29.8685 92.9517 30.0643C98.3551 30.1949 99.5412 30.5213 103.824 32.6103Z" fill="#FF7425"/>
</g>
<defs>
<filter id="filter0_d_51_47" x="36.5" y="30" width="133" height="143" filterUnits="userSpaceOnUse" color-interpolation-filters="sRGB">
<feFlood flood-opacity="0" result="BackgroundImageFix"/>
<feColorMatrix in="SourceAlpha" type="matrix" values="0 0 0 0 0 0 0 0 0 0 0 0 0 0 0 0 0 0 127 0" result="hardAlpha"/>
<feOffset dy="4"/>
<feGaussianBlur stdDeviation="2"/>
<feComposite in2="hardAlpha" operator="out"/>
<feColorMatrix type="matrix" values="0 0 0 0 0 0 0 0 0 0 0 0 0 0 0 0 0 0 0.25 0"/>
<feBlend mode="normal" in2="BackgroundImageFix" result="effect1_dropShadow_51_47"/>
<feBlend mode="normal" in="SourceGraphic" in2="effect1_dropShadow_51_47" result="shape"/>
</filter>
</defs>
</svg>
