<svg xmlns="http://www.w3.org/2000/svg" width="200" height="200" fill="none" viewBox="0 0 200 200"><g clip-path="url(#clip0_249_201)"><rect width="200" height="200" fill="#0356A0"/><g filter="url(#filter0_d_249_201)"><path fill="#FF7425" d="M100.705 34.3278L105.534 36.7483L110.362 34.3278C114.995 32.0381 115.582 31.9072 121.781 31.9072C127.915 31.9072 128.632 32.0381 132.286 34.0007C134.44 35.1128 137.311 37.1409 138.746 38.5147C142.009 41.7857 145.01 48.1315 145.467 52.7763L145.858 56.4398H148.207C151.535 56.4398 154.667 58.5987 156.103 61.8697C157.538 65.0099 157.734 67.1687 156.69 70.1127C156.037 72.0098 156.103 72.2715 157.669 73.5145C159.952 75.3463 161.323 78.0939 161.323 80.9724C161.323 83.9163 160.54 85.4864 157.603 88.5612L155.32 90.9163L157.603 92.3555C160.735 94.2527 162.367 98.505 161.584 102.692C161.192 104.785 159.43 106.944 150.622 115.907C132.939 133.897 121.129 144.626 111.08 151.888C105.86 155.682 99.6613 160.589 97.247 162.879C94.8328 165.168 92.3533 167 91.6355 167C89.939 167 88.3078 164.71 88.6993 163.009C89.2865 160.916 94.5718 156.271 105.795 148.094C117.409 139.589 128.828 129.383 144.88 113.225C156.103 101.841 156.951 100.402 154.341 97.5237C151.927 94.8415 150.556 95.7574 138.485 107.795C129.22 117.019 126.61 119.243 125.239 119.243C122.825 119.243 121.912 116.954 123.347 114.664C123.869 113.748 131.308 106.094 139.921 97.5891C148.468 89.1499 155.45 81.692 155.45 81.1032C155.45 79.664 153.166 77.3743 151.731 77.3743C151.144 77.3743 143.379 84.6359 134.44 93.5331C119.954 107.991 117.997 109.757 116.104 109.757C114.277 109.757 114.016 109.496 113.821 107.86C113.625 106.159 115.452 104.066 132.547 86.9256C144.88 74.4958 151.535 67.365 151.535 66.5145C151.535 64.5519 149.121 62.3276 147.033 62.3276C145.336 62.3276 144.945 62.7856 143.118 66.7108C141.291 70.5706 139.138 73.0566 123.934 88.2995C114.408 97.9162 106.317 105.505 105.664 105.505C103.968 105.505 98.6825 100.337 98.6825 98.7013C98.6825 95.8882 102.141 94.5798 103.903 96.6733C104.359 97.1966 105.077 97.6546 105.534 97.6546C107.1 97.6546 136.332 67.1033 137.963 63.7669C140.051 59.4492 140.051 52.1221 137.898 47.9352C132.286 37.0754 119.236 34.1315 109.84 41.7203C108.274 42.9633 106.382 44.01 105.664 44.01C105.012 44.01 102.989 42.9633 101.227 41.6548C91.1788 34.2624 79.1075 36.8792 73.3655 47.6081C70.0378 53.9539 71.3428 63.7015 76.2365 68.2809L77.7373 69.7201L78.455 67.9538C78.7813 66.9725 79.1075 65.8603 79.1075 65.4678C79.1075 63.6361 81.848 59.2529 83.675 58.1407C86.1545 56.7015 90.722 56.6361 93.3973 58.0753C94.637 58.6641 96.0073 60.2342 96.8555 62.0005L98.2258 64.879L95.8115 85.3556C93.593 103.346 93.1363 105.963 91.9618 107.01C90.8525 107.991 90.461 108.056 89.2865 107.271C88.4383 106.683 87.851 105.505 87.7205 104.131C87.59 102.888 88.5688 93.5985 89.8738 83.4584C91.1135 73.3837 91.9618 64.6173 91.766 64.0286C91.1135 62.2622 89.3518 61.6734 87.59 62.5239C86.4155 63.1127 85.6978 64.4211 84.7843 67.5613C82.0438 77.178 75.6493 96.8041 74.0833 100.206C68.3413 113.028 65.7313 125.524 67.6888 131.477C68.0803 132.72 66.3185 134.879 55.2913 146.393C47.7875 154.243 41.915 159.804 41.2625 159.804C39.7617 159.804 38 158.103 38 156.729C38 155.748 41.393 151.888 53.7253 139.196L60.707 132L61.0333 125.785C61.3595 120.617 62.0773 116.954 64.361 108.449C64.5568 107.664 64.6873 107.402 68.3413 98.3088C69.9073 94.5144 72.191 88.1686 73.4308 84.178L75.7798 76.9164L72.7783 73.7108C71.147 71.9444 68.8633 68.608 67.754 66.2529C65.927 62.3931 65.7313 61.4118 65.7313 55.7856C65.7313 50.3557 65.9923 49.0474 67.5583 45.5801C69.9725 40.3465 75.062 35.3091 80.1515 33.1502C83.4793 31.7764 84.7843 31.5801 89.939 31.7764C95.2895 31.9072 96.464 32.2343 100.705 34.3278Z"/></g></g><defs><filter id="filter0_d_249_201" width="131.778" height="143.288" x="34" y="31.712" color-interpolation-filters="sRGB" filterUnits="userSpaceOnUse"><feFlood flood-opacity="0" result="BackgroundImageFix"/><feColorMatrix in="SourceAlpha" result="hardAlpha" type="matrix" values="0 0 0 0 0 0 0 0 0 0 0 0 0 0 0 0 0 0 127 0"/><feOffset dy="4"/><feGaussianBlur stdDeviation="2"/><feComposite in2="hardAlpha" operator="out"/><feColorMatrix type="matrix" values="0 0 0 0 0 0 0 0 0 0 0 0 0 0 0 0 0 0 0.25 0"/><feBlend in2="BackgroundImageFix" mode="normal" result="effect1_dropShadow_249_201"/><feBlend in="SourceGraphic" in2="effect1_dropShadow_249_201" mode="normal" result="shape"/></filter><clipPath id="clip0_249_201"><rect width="200" height="200" fill="#fff"/></clipPath></defs></svg>